<svg version="1.1" id="Слой_1" xmlns="http://www.w3.org/2000/svg" x="0" y="0" viewBox="0 0 80 80" xml:space="preserve"><style>.st0{opacity:.1}.st1,.st2{fill:#4d6bac}.st2{opacity:.1}</style><g class="st0"><path class="st1" d="M39.25.96c-.12 1.02-1.32 1.93-2.35 1.92-.78 0-1.57-.13-2.34-.28-.91-.16-1.56.23-1.54 1.16.02.98.19 1.97.31 2.95.24 2.02-.01 3.91-1.26 5.58-.28.36-.66.67-1.04.92-.86.54-1.86.04-1.92-1.02-.04-.6.12-1.21.25-1.81.26-1.28.74-2.53.67-3.86-.06-.9-.19-1.8-.43-2.66-.16-.61-.55-1.14-1.31-1.18-.88-.02-1.61.55-1.67 1.5-.05.92.02 1.86.12 2.78.13 1.19.28 2.38-.01 3.53-.18.73-.5 1.44-.86 2.09-.34.6-.82 1.13-1.24 1.68-.73.94-1.78 1.36-2.87 1.67-1.2.34-2.44.43-3.62.04-1.25-.43-2.44-1.09-2.98-2.34-.46-1.06-.84-2.21-.64-3.4.2-1.26.67-2.42 1.66-3.3.61-.54 1.31-.98 2.17-.85 1.33.19 1.79 1.02 1.45 2.11-.08.25-.31.5-.54.66-.54.38-.89.89-1.07 1.5-.31 1.01.43 2.34 1.66 2.16.98-.16 1.69-.65 2.23-1.45 1.07-1.57 1.44-3.31.96-5.14-.38-1.43-1.51-2.28-2.87-2.81-.43-.17-.89-.26-1.34-.38-.83-.24-1.57.02-2.34.32-1.64.65-2.36 2.04-3 3.55-.36.83-.79 1.66-1.69 2.04-.5.2-1.04.43-1.58.1-.66-.41-.97-1.15-.7-1.9.19-.5.49-.98.79-1.44.31-.49.71-.94 1.04-1.42.42-.58.01-1.57-.68-1.74-.96-.22-1.46 0-1.93.84-.17.34-.34.69-.52 1.01-.56 1.03-1.7 1.19-2.53.37-.37-.37-.74-.74-1.12-1.1-.62-.6-1.19-.68-2.03-.18-.52.32-.58.9-.51 1.48.11.88.68 1.42 1.32 1.93.2.16.42.35.52.56.32.68.05 1.28-.74 1.76-.57.35-1.17.69-1.5 1.31-.31.59-.28 1.03.12 1.39.54.5 1.14.58 1.68.23.64-.41 1.25-.85 1.92-1.21.59-.32 1.21-.36 1.85-.02.46.24.64.66.72 1.09.19.9-.1 1.93-1.25 2.15-1.4.25-2.69.78-3.76 1.74C1.5 16.85.96 18.8 1.9 20.58c.3.56.62 1.14 1.02 1.62.78.95 1.87 1.32 3.06 1.42 1.15.08 2.28-.05 3.34-.56 1.08-.54 1.92-1.33 2.35-2.5.2-.53.16-1.09-.24-1.51-.5-.54-1.13-.83-1.9-.61-.79.22-1.26.82-1.73 1.42-.32.43-.7.78-1.26.85-.96.13-1.64-.49-1.48-1.44.11-.56.32-1.16.65-1.64.68-.98 1.6-1.73 2.64-2.33 1.08-.61 2.22-.54 3.37-.3.36.07.73.16 1.06.32.34.17.66.41.94.67.78.73 1.25 1.64 1.45 2.69.48 2.53-.38 4.68-2.12 6.42-1.66 1.66-3.73 2.4-6.12 2.12a57.81 57.81 0 00-3.23-.29c-.35-.02-.71.12-1.06.22-.71.2-1.02.76-1.06 1.44-.04.8.38 1.36 1.13 1.6.58.18 1.19.36 1.79.38 1.78.07 3.52-.18 5.2-.83.37-.13.8-.18 1.2-.14.86.07 1.15.49 1.1 1.39-.04.76-.46 1.27-.97 1.74-1.18 1.03-2.54 1.45-4.12 1.38-1.04-.05-1.97-.43-2.91-.75-.74-.25-1.45-.23-2.09.34-.67.62-.8 1.34-.52 2.18.24.73.4 1.45.17 2.23-.2.7-.86 1.39-1.51 1.46H0V0h39.16c.09.31.13.65.09.96z"/><path class="st1" d="M13.86 29.42c.03-.81.28-1.32.79-1.72.77-.61 1.53-1.24 2.26-1.9 1.19-1.07 1.47-2.55.85-4.08-.15-.37-.3-.77-.34-1.16-.13-1.37 1.03-2.04 2.16-1.84.66.11 1.33.27 1.92.57 1.19.61 2.09.09 2.88-.67.88-.85 1.64-1.82 2.45-2.74.48-.54 1.06-.98 1.79-.95 1.11.05 1.67.94 1.31 2.02-.38 1.15-1.07 2.14-1.99 2.93-.82.7-1.71 1.32-2.54 2-.24.19-.44.46-.6.72-.23.39-.21.83.13 1.13.44.4.93.74 1.42 1.07 1.04.69 1.68 1.51 1.44 2.69-.14.71-.7 1.26-1.42 1.33-1.05.1-1.88-.31-2.52-1.11-.37-.47-.67-.98-1.02-1.47-.15-.21-.33-.41-.53-.58-.54-.48-1.03-.46-1.44.14-.58.85-1.07 1.77-1.66 2.62-.74 1.07-1.55 2.09-2.84 2.56-.89.32-1.88.03-2.25-.71-.18-.32-.21-.68-.25-.85z"/></g><g class="st0"><path class="st1" d="M80 40.81V80H40.53c-.18-.85.34-1.58 1.12-1.99.92-.48 1.91-.49 2.9-.26.64.14 1.26.24 1.84-.24.42-.36.6-.8.37-1.31-.43-.94-.8-1.87-.9-2.92-.11-1.26.18-2.42.66-3.58.36-.83.86-1.54 1.56-2.12.41-.35.85-.43 1.34-.25.53.2.89.58.84 1.15-.06.77-.23 1.52-.35 2.28-.2 1.28-.46 2.57-.56 3.85-.07.86.11 1.72.5 2.51.52 1.02 1.79 1.37 2.68.66.25-.2.41-.62.48-.97.26-1.14.02-2.28-.26-3.37-.42-1.63-.4-3.22.35-4.7.9-1.79 2.28-3.14 4.22-3.85a8.02 8.02 0 012.7-.5c1.73-.02 4.51 1.69 4.78 4.13.17 1.45.08 2.83-.74 4.08-.61.91-1.45 1.52-2.51 1.79-.72.18-1.45-.36-1.69-1.18-.17-.56-.01-1.02.35-1.45.43-.53.92-1 1.06-1.73.11-.7.1-1.38-.44-1.84-.61-.5-1.39-.49-2.11-.17-1.31.58-2 1.66-2.29 3-.35 1.62.06 3.13.78 4.57.2.4.48.77.74 1.13.61.82 1.54 1.06 2.46 1.16 1.37.17 2.7 0 3.76-1.02.3-.29.55-.65.76-1.01.54-.97 1.06-1.96 1.58-2.93.34-.62.84-1.02 1.55-1.16.89-.17 1.91.96 1.61 1.9-.28.83-.73 1.61-1.09 2.42-.12.24-.24.49-.3.76-.13.61 0 .97.43 1.22.44.26 1.1.25 1.48-.08.35-.31.64-.68.95-1.03.29-.31.56-.62.86-.92.38-.37.82-.46 1.27-.18.32.2.68.46.88.78.38.66.94 1.09 1.61 1.43.11.05.18.16.26.22.12-.05.25-.11.37-.16.2-.11.44-.17.61-.31.65-.54.78-1.09.34-1.96-.28-.53-.72-.98-1.1-1.45-.14-.18-.35-.31-.52-.47-.62-.6-.64-1.28.04-1.85.28-.24.6-.41.91-.59.85-.49 1.15-1.28.85-2.2-.26-.77-.83-1-1.55-.59-.47.26-.91.56-1.38.83-.7.38-1.38.72-2.23.5-.78-.2-1.16-.83-.97-1.62.12-.55.38-1.02.89-1.28.56-.3 1.14-.6 1.73-.83 1.09-.44 2.17-.91 2.89-1.88.32-.46.6-1.02.72-1.56.34-1.68.18-3.28-1.04-4.61-1.2-1.3-2.69-1.94-4.45-1.57-.86.18-1.72.54-2.51.97-.9.48-1.38 1.38-1.57 2.38-.13.68.2 1.25.8 1.57.47.25 1 .19 1.44-.12.48-.34.9-.76 1.37-1.09.97-.67 1.81-.84 2.59.18.47.6.37 1.21.2 1.86-.24.89-2.04 2.47-3.31 2.53-.11.01-.22-.05-.24-.05-.14.1-.22.2-.31.22-1.03.19-2.06.18-3.06-.23-2.44-.98-3.32-3.64-2.95-5.94.37-2.28 1.66-3.96 3.55-5.18 1.09-.71 2.35-.89 3.62-.74 1.37.16 2.71.42 4.07.64.54.1 1.09.17 1.58-.12.71-.41.73-1.09.65-1.81-.11-.85-.73-1.25-1.43-1.49-1.33-.47-2.71-.6-4.1-.32-1.03.22-2.04.53-3.06.71-.43.08-.91.06-1.32-.07-.71-.24-.96-.85-.76-1.58.36-1.31 1.67-2.4 3.23-2.47 1.24-.05 2.47.13 3.71.24.68.05 1.37.19 2.05.24 1.37.07 1.63-.54 1.6-1.7-.01-.62-.18-1.25-.25-1.87-.14-1.34.5-2.1 1.52-2.51.21-.13.48-.16.76-.12z"/><path class="st1" d="M49.43 64.2c-.02-1.3.71-2.23 1.65-2.99.89-.72 1.86-1.36 2.82-1.98.9-.58 1.09-1.7.29-2.4-.53-.47-1.13-.88-1.74-1.24-.77-.46-1.13-1.06-1.1-1.97.03-.83.42-1.36 1.13-1.65.88-.36 1.96-.16 2.76.84.46.58.95 1.15 1.44 1.71.12.14.29.25.45.35.54.35 1.18.28 1.52-.26.47-.75.85-1.56 1.29-2.33.5-.88 1.03-1.72 1.99-2.19.45-.22.83-.63 1.29-.72 1.21-.25 2.27.65 1.81 2.1-.29.9-.93 1.57-1.56 2.24-.77.81-1.56 1.61-2.29 2.47-.67.79-.74 1.71-.35 2.68.15.38.28.77.36 1.17.23 1.1-.5 1.97-1.62 1.88-.44-.04-.91-.17-1.27-.4-1.23-.79-1.99-.64-3.04.28-.62.54-1.08 1.26-1.61 1.89-.55.66-1.04 1.38-1.87 1.75-.47.21-.93.3-1.44.13-.5-.17-1.01-.81-.91-1.36z"/></g><g class="st0"><path class="st1" d="M39.16 80H0V40.81c.88.12 1.79.89 1.79 1.9-.01.76-.2 1.5-.26 2.26-.04.53-.05 1.07.04 1.6.1.59.49.86 1.1.85.42-.01.84-.07 1.25-.18 1.67-.43 3.35-.62 5.04-.3 1.18.23 2.28.66 2.99 1.72.17.24.28.52.37.79.2.58-.07 1.07-.64 1.33-.92.43-1.73.06-2.51-.34-1.42-.71-2.89-.89-4.43-.56-.65.13-1.3.35-1.92.59-.77.29-1.1 1.02-.92 1.9.14.7.6 1.07 1.45 1.04.71-.01 1.43-.12 2.14-.19 1.27-.12 2.57-.36 3.84-.05 2.74.7 4.62 1.88 5.57 4.97.4 1.31.3 2.62 0 3.89-.24 1-.79 1.84-1.73 2.38-1.37.78-2.8 1.28-4.36.86-1.64-.44-3.06-1.27-3.62-3.04-.38-1.24.67-2.49 1.85-2.23.37.07.71.32 1.03.54.36.24.72.5 1.04.8.47.43 1.01.54 1.57.34.56-.22.98-1.02.97-1.63-.01-1.46-.88-2.26-2.06-2.82-1.63-.79-3.24-.47-4.86.08-.9.3-1.6.9-2.17 1.62-.18.24-.28.55-.37.84-.35 1.15-.62 2.32-.14 3.52.38.94 1.07 1.55 1.92 2.02 1.09.6 2.21 1.19 3.3 1.8.89.5 1.12 2.02.42 2.68-.72.7-1.84.7-2.62.04-.43-.37-.88-.72-1.36-1.02a2.63 2.63 0 00-.98-.32c-.56-.06-.98.46-1.07 1.21-.06.6.12 1.09.6 1.48.44.37.88.77 1.28 1.18.64.64.8 1.49-.08 2.18-.5.4-1 .79-1.18 1.48-.14.55-.25 1.1.17 1.56.43.47 1.27.61 1.84.28.54-.32 1.06-.71 1.51-1.15.64-.64 1.6-1.01 2.27.06.23.38.52.74.72 1.14.37.71.95 1 1.73.95.47-.04.78-.3.95-.73.26-.68.2-1.34-.28-1.93-.35-.41-.74-.79-1.04-1.24-.44-.64-.66-1.34-.32-2.11.29-.68 1.33-1.04 2.02-.76.9.4 1.28 1.18 1.62 2.02.34.83.6 1.69 1.06 2.45.71 1.19 1.87 1.76 3.24 1.87.91.07 1.84.04 2.63-.48.42-.26.8-.59 1.14-.95 1.15-1.24 1.92-2.66 1.79-4.42-.07-1-.46-1.9-1.06-2.7-.25-.34-.53-.67-.83-.95-.91-.85-2.47-.65-3.13.4-.13.22-.22.56-.14.78.19.55.47 1.09.74 1.61.28.5.62.96.89 1.46.43.84.05 1.54-.86 1.79-.94.26-1.68-.07-2.34-.64-1.56-1.32-2.18-3.07-2.04-5.05.14-1.98 1.79-3.74 3.73-4.25 1.74-.44 3.38-.01 5 .55 1.92.65 2.71 2.22 3.28 3.98.62 1.9.46 3.79.12 5.72-.12.65-.06 1.37.07 2.03.23 1.08 1.3 1.58 2.3 1.13.24-.11.46-.41.54-.65.68-2.17.71-4.37.2-6.58-.14-.64-.26-1.28-.32-1.93-.04-.47.2-.86.65-1.06.49-.2 1-.17 1.43.2 1.38 1.14 1.88 2.69 2 4.4.1 1.42-.19 2.8-.47 4.16-.06.29-.1.58-.11.88-.04.71.48 1.2 1.19 1.09.52-.08 1.02-.28 1.52-.38.46-.1.92-.17 1.38-.2 1.07-.09 1.82.72 2.09 1.63z"/><path class="st1" d="M29.3 66.48c-.83.03-1.37-.21-1.76-.75-.37-.51-.69-1.04-1.03-1.57-.68-1.04-1.49-1.95-2.67-2.45-.84-.35-1.67-.3-2.52-.04-.51.16-1.04.42-1.55.39-1.21-.07-1.83-1.29-1.3-2.44.14-.32.36-.6.53-.91.69-1.26.06-2.7-.88-3.49-.78-.66-1.62-1.24-2.44-1.85-.57-.43-1.17-.83-1.39-1.58-.19-.66.03-1.19.47-1.63.39-.4.93-.62 1.44-.39.71.31 1.49.64 2.01 1.17.83.85 1.46 1.88 2.2 2.82.39.49.77.99 1.24 1.4.56.49 1.36.3 1.78-.32.36-.53.71-1.07 1.1-1.58.88-1.15 2.44-1.41 3.43-.57.5.42.63 1.15.41 1.75-.33.92-1.08 1.42-1.83 1.92-.34.23-.69.44-1.05.63-.91.51-.98 1.87-.09 2.39.79.47 1.6.91 2.36 1.43 1.1.77 2.13 1.64 2.59 2.98.19.56.32 1.13.12 1.72-.28.78-.53.96-1.17.97z"/></g><g class="st0"><path class="st1" d="M80 0v39.58c-.92.12-1.69-.26-2.11-1-.47-.83-.47-1.69-.26-2.59.11-.48.23-.97.26-1.46.07-.97-.35-1.4-1.31-1.34-.61.05-1.22.11-1.81.26-1.79.44-3.58.46-5.34.06-1.19-.28-2.06-1.12-2.24-2.41-.1-.64.42-1.22 1.18-1.24.6-.01 1.22.08 1.82.18 1.12.19 2.22.52 3.35.6 1.08.08 2.17.06 3.19-.5.85-.46.98-1.31.84-2.05-.13-.66-.94-1.22-1.7-1.18-.61.04-1.21.18-1.81.26-1.51.2-3.02.41-4.52-.04-1.1-.31-2-.97-2.95-1.6-1.38-.9-2.2-2.22-2.56-3.78-.17-.71-.04-1.51.06-2.26.19-1.3.76-2.4 1.78-3.26 1.62-1.38 3.49-1.57 5.32-.79.43.18.84.41 1.22.66.85.56 1.33 1.38 1.52 2.35.31 1.56-1.06 2.16-2.09 1.74-.59-.24-1.13-.6-1.64-.97-.7-.48-1.44-.64-1.94-.31-.66.43-.94 1.25-.78 2.09.25 1.37 1.2 2.03 2.39 2.47 1.96.72 3.82.5 5.5-.72.49-.36.88-.97 1.15-1.55.55-1.1.88-2.3.77-3.55-.1-1.08-.61-1.92-1.52-2.53-.74-.5-1.54-.86-2.41-1.1-.73-.18-1.42-.54-1.86-1.22-.34-.49-.36-1.02-.07-1.52.28-.49.74-.68 1.28-.72.96-.07 1.79.34 2.6.78.3.17.62.34.96.41.64.13 1.37-.25 1.52-.74.17-.52-.14-1.07-.72-1.46-.48-.32-.95-.67-1.33-1.1-.58-.66-.47-1.61.17-2.2.36-.35.76-.65 1.09-1.01.62-.67.74-1.32.36-1.8-.56-.72-1.22-.82-2.12-.37-.5.25-.95.66-1.37 1.06-.91.88-1.7.88-2.52-.11-.42-.49-.74-1.07-1.12-1.61-.32-.46-.89-.64-1.44-.47-.47.14-.7.55-.73 1.16-.06.68.26 1.21.64 1.75.3.42.61.82.84 1.27.31.6.24 1.24-.14 1.79-.53.8-1.46.82-2.32.06-.55-.5-.89-1.15-1.09-1.86-.4-1.42-1.14-2.58-2.44-3.35-.7-.42-1.45-.62-2.26-.5-1.52.2-2.92.74-4.08 1.75-.61.53-.91 1.24-1.03 2.03-.19 1.42-.31 2.84.46 4.14.84 1.45 1.75 2.23 3.47 2.06 1.5-.14 1.7-1.36 1.22-2.45-.16-.37-.49-.71-.82-1-.44-.41-.76-.89-.94-1.45-.3-1.02.72-2.08 1.87-1.93.54.06 1.03.25 1.46.61 1.38 1.1 2.27 2.48 2.32 4.28.05 2.04-1.64 4.61-3.91 5.12-2.57.58-4.73-.08-6.62-1.81-.88-.8-1.39-1.8-1.72-2.94-.4-1.38-.5-2.75-.29-4.16.1-.56.25-1.12.31-1.67.07-.54.08-1.08.05-1.62-.04-.61-.64-1.24-1.24-1.39-.61-.17-1.28.13-1.63.71-.64 1.06-.74 2.22-.76 3.42-.01 1.51.32 2.95.7 4.39.16.58.17 1.13-.29 1.55-.44.43-1.15.44-1.76.11-.8-.46-1.2-1.21-1.48-2.04-.61-1.82-.62-3.68-.17-5.54.1-.38.19-.76.26-1.15.04-.23.07-.47.04-.7-.17-.95-.65-1.36-1.62-1.1-.71.19-1.43.37-2.14.4-.82.04-1.55-.31-2.04-1.01-.22-.3-.34-.59-.4-.86H80z"/><path class="st1" d="M63.94 30.76c-.85 0-1.53-.41-2.18-.9-1.09-.84-1.73-2.03-2.46-3.15-.35-.53-.6-1.13-1.24-1.42-.44-.2-.8-.14-1.11.2-.33.36-.62.77-.94 1.15-.56.65-1.09 1.33-1.95 1.63-1.04.37-1.52.25-2.23-.61-.52-.63-.49-1.78.1-2.4.54-.57 1.2-1.01 1.78-1.54.44-.4.87-.82 1.22-1.3.3-.42.21-.77-.23-1.04-.53-.33-1.1-.6-1.67-.85-.96-.43-1.84-.97-2.52-1.77-.45-.53-.85-1.1-1.19-1.7-.28-.5-.26-1.07-.06-1.62.28-.76.93-1.07 1.77-.86.96.23 1.56.94 2.13 1.67.42.54.84 1.09 1.23 1.65.89 1.28 2.12 1.65 3.61 1.37.56-.11 1.12-.19 1.69-.25 1.28-.14 1.89 1.11 1.51 2.17-.14.38-.29.76-.4 1.15-.25.92.06 1.73.46 2.56.55 1.12 1.58 1.73 2.49 2.47.37.31.76.6 1.12.91.54.46.76 1.09.58 1.58-.25.59-.71.87-1.51.9z"/></g><path class="st2" d="M54.68 38.45c-.36-3.19-1.76-6.06-3.85-8.28l-.06-.06v-.01a14.487 14.487 0 00-6.63-3.97c-2.65-.62-5.18-.63-7.88.1.01-.02-4.1 1.68-5.72 3.15l-.84.92c-.01-.02-2.68 3.53-3.32 5.71l.11-.03c-.72 2.8-.72 5.44.01 8.27l-.12-.03c.64 2.16 1.77 4.11 3.26 5.72.01-.02.02-.04.03-.05.32.31.57.55.9.85-.03.01-.05.03-.08.04 1.72 1.58 3.83 2.75 6.17 3.36 1.33.15 2.52.35 3.72.35 1.12 0 2.24-.18 3.45-.33 2.57-.65 4.86-1.98 6.68-3.79.06-.06.12-.12.18-.19 1.96-2.03 3.34-4.62 3.86-7.52.01-.03.01-.07.02-.1.21-1.37.25-2.74.11-4.11zm-1.05 1.65c.01.3.03.7-.43.6-.2-.04-.35-.34-.65-.66.32-.28.49-.57.69-.59.46-.06.38.36.39.65zm-.15-2c.03.09-.26.27-.41.41-.21-.26-.42-.52-.71-.9.29-.21.44-.43.6-.43.65 0 .42.59.52.92zm-.33-2.11c-.29.17-.61.38-.63.36-.23-.3-.44-.62-.58-.97-.02-.05.32-.25.5-.38.21.29.43.59.71.99zm-1.09-2.06c.02.07-.32.26-.49.4-.21-.31-.47-.6-.62-.94-.04-.09.25-.33.5-.63.26.47.48.81.61 1.17zm-2.03-2.76c.31.22.59.51.96.86-.3.2-.6.45-.64.41-.29-.26-.53-.58-.76-.91-.01-.01.4-.39.44-.36zm-1.68-1.55c.35.18.66.43 1.07.71-.26.23-.5.51-.54.49-.33-.22-.62-.5-.92-.75.13-.16.35-.47.39-.45zm-1.82-1.41c.35.35.63.61.9.88-.14.14-.36.42-.4.39-.33-.2-.63-.45-.9-.72-.03-.01.21-.28.4-.55zm-2.1-.86c.38.26.69.47.99.68-.15.15-.35.46-.43.43-.33-.13-.63-.35-.94-.54.11-.16.22-.33.38-.57zM42.35 27c.31.09.59.29.88.45-.11.16-.22.32-.42.6-.38-.28-.65-.48-.91-.67.15-.13.34-.41.45-.38zm-2.05-.17c.29-.04.74-.09.66.42-.03.18-.33.32-.62.58-.28-.28-.47-.47-.66-.65.21-.13.4-.32.62-.35zm-1.93.15c.09-.02.27.28.4.43-.27.19-.54.37-.94.65-.18-.29-.38-.45-.37-.61.03-.6.58-.38.91-.47zm-2.2.51c.12-.04.34.2.52.31 0 .08 0 .17.01.25-.33.14-.64.34-.98.4-.12.02-.31-.26-.46-.4.29-.19.58-.43.91-.56zm-2.88 1.41c.26-.23.6-.39.94-.51.05-.02.34.38.32.4-.28.29-.59.55-1.05.95-.11-.42-.29-.77-.21-.84zm-.99.72c.04-.03.3.23.58.44-.39.3-.7.57-1.03.76-.04.03-.28-.27-.42-.41.27-.27.55-.56.87-.79zm-1.14 2c-.25.29-.52.6-.81.94-.21-.18-.37-.32-.52-.45.52-1.04.79-1.14 1.33-.49zm-1.83 1.37c.02-.02.31.2.58.37-.32.37-.58.66-.83.96-.15-.14-.44-.35-.42-.39.18-.34.41-.65.67-.94zm-1.55 2.92c.14-.32.38-.6.58-.89.15.11.3.22.54.4-.29.37-.51.65-.73.94-.14-.16-.42-.37-.39-.45zm-.07 1.29c.15-.01.32.2.61.39-.3.39-.51.66-.72.93-.12-.16-.37-.33-.35-.47.06-.32-.08-.82.46-.85zm-.63 2.83c.04-.22.24-.41.38-.61l.63.7c-.28.28-.43.56-.61.58-.52.06-.45-.38-.4-.67zm-.1 2.07c.3-.22.48-.34.65-.47.16.29.37.56.44.87.03.13-.26.32-.4.49-.19-.25-.39-.5-.69-.89zm.75 2.11c-.02-.07.3-.26.46-.39.21.3.43.59.71 1-.28.15-.61.36-.63.33-.21-.29-.41-.6-.54-.94zm1.59 2.97c-.27-.28-.51-.59-.7-.93-.02-.03.31-.27.49-.41.25.3.49.61.81.99-.28.16-.57.38-.6.35zm1.37 1.81c-.3-.25-.57-.54-.82-.85-.02-.02.36-.42.39-.4.32.22.61.49.99.81-.26.21-.53.47-.56.44zm1.62 1.56c-.33-.22-.61-.51-.91-.77.14-.15.36-.45.4-.43.34.19.65.44 1.06.73-.26.23-.51.5-.55.47zm1.89 1.24c-.35-.16-.65-.43-.97-.65.12-.16.3-.47.36-.46.36.14.69.35 1.04.54.04.1.09.21.13.31-.19.1-.44.32-.56.26zm2.04.89c-.35-.15-.67-.37-.99-.57.1-.16.21-.32.37-.57l1.01.65c-.13.18-.34.51-.39.49zm2.08.47c-.32-.03-.81.12-.86-.42-.01-.15.18-.32.37-.61.4.28.67.46.93.65-.14.14-.3.4-.44.38zm2.64-.19c-.03.18-.32.33-.59.59-.3-.25-.63-.39-.67-.58-.08-.46.33-.42.63-.41.28 0 .7-.08.63.4zm1.42.2c-.15.01-.32-.22-.48-.35l.85-.68c.23.27.46.42.46.56-.01.56-.51.44-.83.47zm-2.08-1.28c-6.53-.02-11.8-5.31-11.77-11.83.03-6.55 5.36-11.82 11.9-11.77 6.49.05 11.72 5.35 11.69 11.84A11.735 11.735 0 0140.3 51.88zm4.18.78c-.11.02-.28-.28-.42-.44.32-.18.64-.39.98-.51.1-.03.3.21.62.47-.51.22-.83.41-1.18.48zm2.07-.88c-.09.03-.3-.28-.45-.43.32-.23.63-.48.98-.66.06-.03.28.26.54.5-.42.24-.73.47-1.07.59zm1.8-1.22c-.04.02-.39-.4-.37-.42.26-.29.55-.57.87-.78.05-.03.31.26.59.49-.43.3-.74.54-1.09.71zm2.45-2.46c-.17.35-.41.66-.7 1.09-.24-.27-.54-.54-.51-.59.22-.33.5-.61.77-.91.16.15.47.36.44.41zm.57-.9c-.14-.16-.44-.4-.41-.46.18-.32.43-.61.68-.87.02-.02.32.24.59.45-.34.35-.6.62-.86.88zm1.04-2.03c-.16-.13-.49-.32-.46-.39.12-.34.33-.65.54-.95.01-.02.34.18.64.35l-.72.99zm1.16-2.98c-.04.05-.07.1-.1.15-.1.14-.18.26-.26.38-.04.06-.09.12-.13.18L53 43c-.01-.01-.02-.02-.03-.02a.138.138 0 00-.04-.03c-.02-.02-.04-.03-.06-.05l-.03-.03c-.02-.02-.04-.03-.06-.04a.5.5 0 01-.08-.07c-.08-.07-.13-.13-.12-.18.07-.33-.12-.87.46-.91.15-.01.33.21.61.4-.02.04-.05.08-.08.12z"/><path class="st2" d="M43.66 37.95c-.17-.15-.34-.29-.49-.44-.75-.75-.72-.88.13-1.53.75-.57 1.51-1.16 2.17-1.83.66-.67 1.23-1.43 1.82-2.18.42-.53.72-.26 1.04.1.31.34.8.62.19 1.14-1.15.99-2.29 1.98-3.38 3.02-.44.42-.75.98-1.13 1.47-.08.11-.21.16-.35.25zm-5.18 5.5c-.47.37-.78.61-1.08.85-.54.42-1.13.8-1.61 1.29-.73.76-1.37 1.61-2.07 2.39-.22.24-.65.62-.78.55-.39-.2-.83-.55-.93-.93-.06-.24.38-.73.71-.95 1.4-.95 2.58-2.09 3.49-3.52.16-.25.39-.47.63-.66.09-.07.32-.1.4-.04.36.27.7.57 1.24 1.02zm-.17-6.5c-.38.29-.73.62-1.15.84-.13.07-.48-.12-.63-.29-.85-.95-1.65-1.95-2.53-2.87-.39-.42-.89-.75-1.38-1.05-.86-.53-.9-.88-.21-1.6.39-.41.71-.45 1.05.02.11.16.26.3.37.45.25.35.46.73.75 1.04.53.58 1.08 1.15 1.67 1.67.48.43 1.04.77 1.55 1.17.14.1.22.26.51.62zm5.46 5.15c.26.35.5.66.73.97.41.53.79 1.07 1.23 1.57.48.54.99 1.04 1.53 1.52.38.34.84.59 1.25.89.39.28.31.53.01.85-.82.86-1.27.78-1.76-.35-.09-.21-.23-.42-.4-.58-.71-.74-1.42-1.48-2.17-2.17-.34-.32-.81-.49-1.17-.8-.62-.54-.61-.57-.03-1.16l.78-.74zm-1.81-5.76c-.42-.44-.77-.82-1.23-1.3.46-.33.87-.63 1.27-.93.17-.13.36-.25.51-.4.62-.61 1.26-1.22 1.85-1.86.32-.34.54-.78.85-1.13.18-.2.54-.5.68-.44.42.19.77.53 1.15.81-.17.22-.29.54-.51.64-1.23.57-1.97 1.7-2.92 2.58-.31.28-.48.71-.74 1.04-.26.33-.55.61-.91.99zm-5.4 5.48c-2 1.4-3.77 3.02-5.16 5.22-.36-.55-.67-.89-.82-1.3-.07-.18.12-.56.31-.72.57-.52 1.25-.93 1.78-1.48.78-.8 1.46-1.69 2.19-2.54.13-.15.28-.26.51-.47.38.41.73.8 1.19 1.29zm12.87-8.48c.27.42.58.76.71 1.15.07.19-.1.57-.28.73-.68.63-1.46 1.15-2.1 1.81-.68.69-1.25 1.48-1.88 2.22-.12.15-.29.26-.47.42-.18-.15-.35-.28-.51-.43-.77-.73-.73-.95.13-1.57.66-.48 1.33-.97 1.89-1.55.73-.75 1.37-1.6 2.06-2.4.1-.11.23-.19.45-.38zm-.12 13.62c-.34-.47-.58-.82-.83-1.16-.24-.31-.46-.64-.75-.89-1.02-.93-2.06-1.84-3.12-2.74-.43-.37-.4-.67.02-.99.37-.29.63-.95 1.23-.23.88 1.06 1.79 2.1 2.73 3.12.3.32.7.57 1.09.79.55.31.65.6.3 1.15-.17.27-.37.53-.67.95zM33.5 49.11l1.13-.83c.19-.14.4-.26.57-.42.72-.7 1.44-1.39 2.12-2.13.37-.41.65-.91.98-1.35.27-.36.54-.4.9-.04.82.83.75 1.26-.36 1.76-.21.1-.41.24-.58.4-.75.73-1.49 1.46-2.22 2.22-.18.18-.31.41-.42.64-.31.66-.58.76-1.2.37-.25-.15-.5-.33-.92-.62zm-.05-17.93c.28-.25.36-.35.47-.42.94-.59 1.14-.97 1.79.35.25.5.76.89 1.2 1.28.85.76 1.73 1.49 2.6 2.23.37.31.38.6-.01.89-.02.01-.03.03-.05.05-.74.75-.97.72-1.57-.14-.42-.6-.85-1.2-1.38-1.71-.72-.7-1.53-1.32-2.31-1.97-.2-.18-.44-.34-.74-.56zm13.66 17.98c-.43.28-.8.59-1.23.75-.16.06-.51-.16-.67-.35-.51-.58-.93-1.25-1.48-1.78-.69-.68-1.48-1.24-2.2-1.89-.26-.23-.69-.66-.62-.82.17-.39.55-.71.91-.99.07-.06.43.12.57.27 1.04 1.13 2.03 2.3 3.09 3.42.38.4.89.66 1.34 1 .09.08.15.2.29.39zm-11.88-9.45c-.56-.72-1-1.38-1.53-1.97-.63-.7-1.32-1.33-1.99-1.99-.11-.11-.21-.22-.34-.3-1.11-.67-1.14-.8-.32-1.83.07-.08.15-.15.34-.32.28.38.54.73.79 1.08.13.17.23.36.38.52.64.66 1.27 1.32 1.95 1.94.41.37.92.63 1.34 1 .72.62.71.64.04 1.29-.18.17-.38.33-.66.58zm9.74.33c-.48.42-.9 1.04-1.24 1-.41-.05-.74-.67-1.11-1.04.37-.35.73-.96 1.11-.97.37-.01.76.59 1.24 1.01zm-4.24 1.73c.48-.45.86-.8 1.35-1.26.34.45.84.86.91 1.33.04.27-.65.95-.94.91-.45-.06-.83-.58-1.32-.98zm-2.06-4.62c.44.47.79.85 1.25 1.34-.47.36-.87.87-1.34.95-.26.05-.95-.65-.91-.94.07-.45.59-.83 1-1.35zm.45-.41c.48-.44.85-.79 1.32-1.23.36.43.91.81.96 1.24.03.31-.64 1-.95.97-.43-.03-.83-.58-1.33-.98zm2.94 2.89c-.42-.47-1.02-.85-1.02-1.22 0-.38.61-.75.96-1.12.38.36 1.01.69 1.06 1.1.05.33-.58.76-1 1.24zm-.52 3.83c-.48.41-.91 1.04-1.24 1-.4-.05-.74-.67-1.1-1.05.37-.34.74-.95 1.11-.96.37 0 .76.6 1.23 1.01zm.05-3.36c-.48.41-.91 1.04-1.24 1-.4-.05-.97-.66-1-1.07-.03-.31.66-.96 1.03-.96s.74.61 1.21 1.03zm-4.65-1.2c.44.46.8.83 1.25 1.3-.43.36-.82.92-1.25.95-.32.03-1.01-.64-.98-.95.04-.44.59-.83.98-1.3zm1.68 1.64c.42.47 1.02.86 1.01 1.24-.01.38-.62.74-.98 1.11-.38-.37-1-.71-1.05-1.12-.03-.33.61-.76 1.02-1.23z"/></svg>